<svg width="253" height="94" viewBox="0 0 253 94" fill="none" xmlns="http://www.w3.org/2000/svg">
<path d="M0.657227 44V0.479996H14.2892C19.0252 0.479996 23.0786 1.568 26.4492 3.744C29.8199 5.87733 31.5052 9.43999 31.5052 14.432C31.5052 19.3813 29.6919 23.0293 26.0652 25.376C22.4386 27.68 18.3212 28.832 13.7132 28.832H8.91323V44H0.657227ZM14.0332 7.39199H8.91323V21.984H14.1612C16.6359 21.984 18.6412 21.4293 20.1772 20.32C21.7132 19.168 22.5666 17.376 22.7372 14.944C22.7372 12.128 21.9692 10.1653 20.4332 9.056C18.8972 7.94666 16.7639 7.39199 14.0332 7.39199Z" fill="white"/>
<path d="M54.8282 11.872L49.1322 27.04H60.6522L54.8282 11.872ZM58.5402 0.479996L75.4362 42.848L67.1162 44L63.2122 33.76H46.7002L42.8602 44H34.5402L51.5002 0.479996H58.5402Z" fill="white"/>
<path d="M90.2437 0.479996V34.528C90.2437 37.472 89.5184 39.712 88.0677 41.248C86.6597 42.784 84.0357 44.1707 80.1957 45.408L76.8677 39.264C79.1291 38.4533 80.5157 37.7067 81.0277 37.024C81.5824 36.3413 81.8597 35.104 81.8597 33.312V0.479996H90.2437Z" fill="white"/>
<path d="M131.434 44H100.97V0.479996H126.954L128.234 7.008H109.226V18.72H120.874L122.218 25.312H109.226V37.536H130.09L131.434 44Z" fill="white"/>
<path d="M66.625 81.6875V60.625C66.625 58.7917 67.2083 56.875 68.375 54.875C70.75 50.875 74.3333 48.8958 79.125 48.9375V52.125C76.375 52.1667 74.1041 53.1667 72.3125 55.125C70.7291 56.875 69.9375 58.7083 69.9375 60.625V81.6875C69.9375 82.8542 70.3125 84.125 71.0625 85.5C72.8541 88.5833 75.5416 90.125 79.125 90.125V93.3125C75 93.2708 71.7291 91.75 69.3125 88.75C67.5208 86.4583 66.625 84.1042 66.625 81.6875ZM82 93.3125V90.125L83.6875 89.875C84.8125 89.75 86.0625 89.1875 87.4375 88.1875C88.8541 87.1875 89.8333 85.8125 90.375 84.0625C90.5416 83.4792 90.6666 82.8125 90.75 82.0625C90.8333 81.7292 90.875 81.3542 90.875 80.9375L93.875 81.625C93.875 84.5417 92.8333 87.1458 90.75 89.4375C88.3333 92.0208 85.4166 93.3125 82 93.3125ZM82 52.125V48.9375C84.8333 48.9375 87.4583 50.0417 89.875 52.25C92.5416 54.7083 93.875 57.5417 93.875 60.75L90.75 61.5625V60.5C90.7083 60 90.5833 59.4167 90.375 58.75C89.2083 55.5833 87.0833 53.5 84 52.5C82.6666 52.25 82 52.125 82 52.125Z" fill="white"/>
<path d="M98.5625 84.0625V69.1875C98.5625 67.2292 99.4375 65.3333 101.187 63.5C103.271 61.375 105.854 60.3125 108.937 60.3125V63.4375C106.146 63.4375 104.062 64.6042 102.687 66.9375C102.104 67.9792 101.812 69 101.812 70V83.25C101.812 84.9167 102.604 86.5 104.187 88C105.604 89.2917 107.187 89.9375 108.937 89.9375V93.0625C105.062 93.0625 102.104 91.5 100.062 88.375C99.0625 86.875 98.5625 85.4375 98.5625 84.0625ZM111.562 93.0625V89.9375C114.146 89.9375 116.104 88.75 117.437 86.375C118.062 85.3333 118.375 84.3333 118.375 83.375V70C118.375 68.1667 117.583 66.5417 116 65.125C114.708 64 113.229 63.4375 111.562 63.4375V60.3125C115.312 60.3125 118.187 61.8333 120.187 64.875C121.146 66.375 121.625 67.8125 121.625 69.1875V84.0625C121.625 86.0625 120.771 87.9792 119.062 89.8125C117.062 91.9375 114.562 93.0208 111.562 93.0625Z" fill="white"/>
<path d="M126.375 93V69.125C126.375 67.125 127.271 65.1875 129.062 63.3125C131.187 61.1875 133.792 60.125 136.875 60.125V63.375C134.583 63.375 132.646 64.2708 131.062 66.0625C130.104 67.1875 129.625 68.3333 129.625 69.5V93H126.375ZM139.562 63.375V60.125C143.312 60.125 146.271 61.6667 148.437 64.75C149.521 66.2917 150.062 67.75 150.062 69.125V93H146.75V69.5C146.75 68.1667 146.062 66.8333 144.687 65.5C143.229 64.0833 141.521 63.375 139.562 63.375Z" fill="white"/>
<path d="M154.812 93V69.125C154.812 67.125 155.708 65.1875 157.5 63.3125C159.625 61.1875 162.229 60.125 165.312 60.125V63.375C163.021 63.375 161.083 64.2708 159.5 66.0625C158.542 67.1875 158.062 68.3333 158.062 69.5V93H154.812ZM168 63.375V60.125C171.75 60.125 174.708 61.6667 176.875 64.75C177.958 66.2917 178.5 67.75 178.5 69.125V93H175.187V69.5C175.187 68.1667 174.5 66.8333 173.125 65.5C171.667 64.0833 169.958 63.375 168 63.375Z" fill="white"/>
<path d="M183.375 84.0625V69.125C183.417 67.1667 184.333 65.2917 186.125 63.5C188.167 61.375 190.687 60.3125 193.687 60.3125V63.375C191.312 63.375 189.354 64.4375 187.812 66.5625C187.021 67.6458 186.625 68.6667 186.625 69.625V74.5625H203.625V69.625C203.625 67.5417 202.604 65.8542 200.562 64.5625C199.271 63.7292 197.937 63.3125 196.562 63.3125V60.3125C199.354 60.3125 201.854 61.3333 204.062 63.375C205.896 65.125 206.833 67.0208 206.875 69.0625V77.6875H186.625V84.0625C186.625 85.3542 187.417 86.6875 189 88.0625C190.5 89.3125 192.083 89.9375 193.75 89.9375V93C190.083 93 187.187 91.5 185.062 88.5C183.937 86.9167 183.375 85.4375 183.375 84.0625ZM196.562 93V89.75C199.271 89.75 201.396 88.6042 202.937 86.3125C203.396 85.6042 203.708 84.9375 203.875 84.3125L206.937 85.375C206.021 88.4167 204.167 90.6042 201.375 91.9375C199.875 92.6458 198.271 93 196.562 93Z" fill="white"/>
<path d="M211.875 84.0625V69.375C211.875 67.875 212.354 66.3542 213.312 64.8125C215.271 61.8125 218.167 60.3125 222 60.3125V63.4375C220.375 63.4375 218.896 63.9792 217.562 65.0625C215.937 66.3958 215.125 67.8958 215.125 69.5625V84.0625C215.125 84.9375 215.458 85.8542 216.125 86.8125C217.542 88.8542 219.479 89.875 221.937 89.875V93C218.854 93 216.354 92.0417 214.437 90.125C212.729 88.3333 211.875 86.3125 211.875 84.0625ZM224.75 63.5V60.3125C226.833 60.3125 228.729 60.9583 230.437 62.25C232.854 64.0833 234.062 66.4792 234.062 69.4375L230.937 70.5625V69.4375C230.812 68.1875 230.417 67.0833 229.75 66.125C228.542 64.375 226.875 63.5 224.75 63.5ZM224.687 93.0625V89.9375C225.812 89.9375 226.896 89.6667 227.937 89.125C230.104 87.9167 231.333 86.125 231.625 83.75C231.625 83.6667 231.625 83.5 231.625 83.25C231.667 82.9583 231.687 82.7708 231.687 82.6875L234.75 83.875C234.792 86.0417 233.979 88 232.312 89.75C230.187 91.9583 227.646 93.0625 224.687 93.0625Z" fill="white"/>
<path d="M237.75 64.125V60.9375H241.75V49.125H245V60.9375H249V64.125H245V82.9375C245 86.3958 246.167 88.5417 248.5 89.375C249.458 89.6667 250.562 89.8125 251.812 89.8125H252.062L252.812 93H251.5C246.458 92.9583 243.396 91 242.312 87.125C241.937 85.7917 241.75 84.2083 241.75 82.375V64.125H237.75Z" fill="white"/>
</svg>
