<svg width="132" height="46" viewBox="0 0 132 46" fill="none" xmlns="http://www.w3.org/2000/svg">
<path d="M0.723389 44.092V0.571991H14.3554C19.0914 0.571991 23.1447 1.65999 26.5154 3.83599C29.8861 5.96932 31.5714 9.53199 31.5714 14.524C31.5714 19.4733 29.7581 23.1213 26.1314 25.468C22.5047 27.772 18.3874 28.924 13.7794 28.924H8.97939V44.092H0.723389ZM14.0994 7.48399H8.97939V22.076H14.2274C16.7021 22.076 18.7074 21.5213 20.2434 20.412C21.7794 19.26 22.6327 17.468 22.8034 15.036C22.8034 12.22 22.0354 10.2573 20.4994 9.14799C18.9634 8.03866 16.8301 7.48399 14.0994 7.48399Z" fill="black"/>
<path d="M54.8944 11.964L49.1984 27.132H60.7184L54.8944 11.964ZM58.6064 0.571991L75.5024 42.94L67.1824 44.092L63.2784 33.852H46.7664L42.9264 44.092H34.6064L51.5664 0.571991H58.6064Z" fill="black"/>
<path d="M90.3099 0.571991V34.62C90.3099 37.564 89.5846 39.804 88.1339 41.34C86.7259 42.876 84.1019 44.2627 80.2619 45.5L76.9339 39.356C79.1952 38.5453 80.5819 37.7987 81.0939 37.116C81.6486 36.4333 81.9259 35.196 81.9259 33.404V0.571991H90.3099Z" fill="black"/>
<path d="M131.5 44.092H101.036V0.571991H127.02L128.3 7.09999H109.292V18.812H120.94L122.284 25.404H109.292V37.628H130.156L131.5 44.092Z" fill="black"/>
</svg>
